<mxfile host="65bd71144e">
    <diagram id="buGowKYsNFscl0GCJor5" name="Page-1">
        <mxGraphModel dx="986" dy="689" grid="1" gridSize="10" guides="1" tooltips="1" connect="1" arrows="1" fold="1" page="1" pageScale="1" pageWidth="850" pageHeight="1100" math="0" shadow="0">
            <root>
                <mxCell id="0"/>
                <mxCell id="1" parent="0"/>
                <mxCell id="7" value="" style="swimlane;startSize=0;" vertex="1" parent="1">
                    <mxGeometry x="270" y="120" width="490" height="570" as="geometry"/>
                </mxCell>
                <mxCell id="9" value="" style="swimlane;startSize=0;" vertex="1" parent="7">
                    <mxGeometry x="40" y="300" width="240" height="220" as="geometry"/>
                </mxCell>
                <mxCell id="11" value="Scooter" style="text;html=1;align=center;verticalAlign=middle;resizable=0;points=[];autosize=1;strokeColor=none;fillColor=none;" vertex="1" parent="9">
                    <mxGeometry x="40" y="40" width="60" height="30" as="geometry"/>
                </mxCell>
                <mxCell id="18" value="&lt;span style=&quot;&quot;&gt;rent()&lt;/span&gt;" style="ellipse;whiteSpace=wrap;html=1;" vertex="1" parent="9">
                    <mxGeometry x="5" y="10" width="105" height="50" as="geometry"/>
                </mxCell>
                <mxCell id="19" value="&lt;span style=&quot;&quot;&gt;dock(station)&lt;/span&gt;" style="ellipse;whiteSpace=wrap;html=1;" vertex="1" parent="9">
                    <mxGeometry x="130" y="10" width="100" height="50" as="geometry"/>
                </mxCell>
                <mxCell id="21" value="&lt;span style=&quot;&quot;&gt;recharge()&lt;/span&gt;" style="ellipse;whiteSpace=wrap;html=1;" vertex="1" parent="9">
                    <mxGeometry y="160" width="110" height="50" as="geometry"/>
                </mxCell>
                <mxCell id="22" value="&lt;span style=&quot;&quot;&gt;requestRepair()&lt;/span&gt;" style="ellipse;whiteSpace=wrap;html=1;" vertex="1" parent="9">
                    <mxGeometry x="125" y="160" width="110" height="50" as="geometry"/>
                </mxCell>
                <mxCell id="12" value="login(password)" style="ellipse;whiteSpace=wrap;html=1;" vertex="1" parent="7">
                    <mxGeometry x="30" y="50" width="100" height="50" as="geometry"/>
                </mxCell>
                <mxCell id="13" value="logOut()" style="ellipse;whiteSpace=wrap;html=1;" vertex="1" parent="7">
                    <mxGeometry x="150" y="50" width="100" height="50" as="geometry"/>
                </mxCell>
                <mxCell id="10" value="Scooter" style="text;html=1;align=center;verticalAlign=middle;resizable=0;points=[];autosize=1;strokeColor=none;fillColor=none;" vertex="1" parent="7">
                    <mxGeometry x="130" y="280" width="60" height="30" as="geometry"/>
                </mxCell>
                <mxCell id="2" value="User" style="shape=umlActor;verticalLabelPosition=bottom;verticalAlign=top;html=1;outlineConnect=0;" vertex="1" parent="1">
                    <mxGeometry x="50" y="280" width="70" height="120" as="geometry"/>
                </mxCell>
                <mxCell id="8" value="Scooter App" style="text;html=1;align=center;verticalAlign=middle;resizable=0;points=[];autosize=1;strokeColor=none;fillColor=none;" vertex="1" parent="1">
                    <mxGeometry x="470" y="100" width="90" height="30" as="geometry"/>
                </mxCell>
                <mxCell id="23" value="" style="endArrow=classic;html=1;entryX=-0.006;entryY=0.137;entryDx=0;entryDy=0;entryPerimeter=0;" edge="1" parent="1" target="7">
                    <mxGeometry width="50" height="50" relative="1" as="geometry">
                        <mxPoint x="130" y="330" as="sourcePoint"/>
                        <mxPoint x="180" y="280" as="targetPoint"/>
                    </mxGeometry>
                </mxCell>
                <mxCell id="24" value="" style="endArrow=classic;html=1;" edge="1" parent="1" target="9">
                    <mxGeometry width="50" height="50" relative="1" as="geometry">
                        <mxPoint x="140" y="370" as="sourcePoint"/>
                        <mxPoint x="190" y="320" as="targetPoint"/>
                    </mxGeometry>
                </mxCell>
            </root>
        </mxGraphModel>
    </diagram>
</mxfile>